<svg width="100%" height="200" viewBox="0 0 800 200" xmlns="http://www.w3.org/2000/svg">
    <rect width="100%" height="200" fill="rgb(163,223,247)"/>

    <g fill="rgb(210,235,246)">
        <circle cx="-20"  cy="90" r="60"/>
        <circle cx="80"   cy="100" r="70"/>
        <circle cx="180"  cy="85" r="65"/>
        <circle cx="260"  cy="90" r="50"/>
        <circle cx="290"  cy="95" r="45"/>
        <circle cx="380"  cy="90" r="75"/>
        <circle cx="460"  cy="95" r="55"/>
        <circle cx="490"  cy="100" r="50"/>
        <circle cx="580"  cy="85" r="80"/>
        <circle cx="680"  cy="95" r="75"/>
        <circle cx="800"  cy="85" r="90"/>
        <circle cx="860"  cy="100" r="70"/>
    </g>

    <g fill="rgb(230,244,248)">
        <circle cx="-30"  cy="130" r="65"/>
        <circle cx="70"   cy="120" r="75"/>
        <circle cx="170"  cy="140" r="70"/>
        <circle cx="250"  cy="135" r="50"/>
        <circle cx="280"  cy="140" r="45"/>
        <circle cx="370"  cy="145" r="80"/>
        <circle cx="470"  cy="130" r="75"/>
        <circle cx="570"  cy="140" r="80"/>
        <circle cx="650"  cy="130" r="50"/>
        <circle cx="680"  cy="135" r="45"/>
        <circle cx="780"  cy="120" r="90"/>
        <circle cx="850"  cy="130" r="70"/>
    </g>

    <g fill="white">
        <circle cx="-40"  cy="175" r="70"/>
        <circle cx="60"   cy="170" r="80"/>
        <circle cx="140"  cy="175" r="55"/>
        <circle cx="170"  cy="180" r="50"/>
        <circle cx="260"  cy="175" r="90"/>
        <circle cx="360"  cy="185" r="85"/>
        <circle cx="460"  cy="175" r="80"/>
        <circle cx="540"  cy="180" r="55"/>
        <circle cx="570"  cy="185" r="50"/>
        <circle cx="660"  cy="170" r="80"/>
        <circle cx="770"  cy="165" r="95"/>
        <circle cx="850"  cy="175" r="75"/>
    </g>
</svg>
