<?xml version="1.0" encoding="UTF-8"?>
<svg version="1.1" viewBox="0 0 2048 2048" width="192" height="192" xmlns="http://www.w3.org/2000/svg">
<path transform="translate(1647,363)" d="m0 0 9 2 11 9 5 6 2 6v11l-10 51-14 80-10 55-9 50-7 40-12 67-9 51-9 52-5 26-9 51-8 46-6 33-7 39-10 57-11 62-7 41-10 56-4 13-6 9-11 10-5-2-6-1-32-13-49-21-34-15-29-12-34-15-37-15-12-4-6 12-10 12-20 28-7 9-16 21-10 14-10 13-14 19-13 17-9 12-16 21-9 12-11 12-8 6-2 1h-9l-7-3-8-7-10-11-8-17-15-43-56-168-16-50-7-21-5-5-18-5-41-14-36-12-40-13-41-14-40-13-41-14-27-9-10-4-6-4-8-14v-10l6-10 9-8 28-16 29-17 25-15 28-16 24-14 26-15 28-16 24-14 21-12 26-15 24-14 28-16 24-14 52-30 14-8 17-10 45-26 22-13 24-14 26-15 27-16 52-30 24-14 25-14 22-13 25-14 24-14 26-15 24-14 18-10 15-9 26-15 96-56 21-12 15-8zm-140 139-16 8-22 12-34 20-26 15-21 12-26 15-24 14-43 25-18 10-19 11-29 17-24 14-26 15-27 16-23 13-24 14-26 15-21 12-26 15-21 12-26 15-29 17-18 10-39 23-28 16-19 11-29 17-26 15-22 13-15 9-22 10 2 2 49 17 129 43 41 14 18 6 7 2 8-7 5-6 8-7 163-163v-2l4-2 6-6v-2h2v-2l4-2 16-16v-2l4-2 60-60v-2l4-2 102-102v-2l4-2 6-6v-2l4-2 12-12 9-10 5-4 6-7 5-5 11-10 5-6 5-4 7-8 14-14 13-12 12-12 8-7 13-13v-2zm89 12-11 16-10 14-8 12-12 16-13 18-12 17-13 18-11 16-11 15-11 16-20 28-12 17-13 18-13 19-10 13-13 19-9 12-12 17-13 18-12 17-10 14-13 18-10 14-8 11-13 18-12 17-13 18-14 20-10 13-12 18-14 19-11 16-8 11-20 28-6 8 1 4 26 11 29 13 43 18 95 41 46 20 26 11 23 11h3l3-20 7-36 10-57 14-79 14-80 20-112 13-73 19-108 18-101 6-34v-8zm-155 129-8 7-10 9-402 402-5 4-2 5 6 12 20 61 17 51 14 41 7 16 4 6h2l4-31 8-42 10-50 7-34 6-11 8-8 8-7 9-11 15-22 11-15 13-18 9-13 13-18 9-13 11-15 13-18 13-19 10-14 12-17 12-16 11-16 13-18 4-5 12-17 10-13 7-10 11-16 10-14 13-18 10-14 13-18 14-19 9-13 12-17 6-8 3-6zm-285 498-2 5-3 17-8 42-9 46-6 28v4l4-2 7-8 8-12 13-18 14-18 9-12 10-14 11-14 10-13 2-2-1-4-21-10-23-10-12-5z" fill="#3E84DA"/>
<path transform="translate(602,1474)" d="m0 0h13l35 4 52 4 8 4 6 8 2 6v12l-6 10-9 7-5 3h-25l-42-3-25-5-10-5-7-7-4-9 1-9 6-10z" fill="#3E84DA"/>
<path transform="translate(423,1388)" d="m0 0 9 1 16 9 22 14 24 14 13 8 10 8 5 7 1 3v8l-3 8-7 9-9 6h-7l-13-4-16-8-16-9-22-14-12-9-10-9-6-8-2-5 1-7 7-11 8-7z" fill="#3E84DA"/>
<path transform="translate(903,1416)" d="m0 0h13l7 4 5 5 5 8 2 5v8l-4 7-7 7-13 9-24 12-16 7-6 2h-7l-8-4-8-9-4-9-1-5 4-12 7-7 14-8 16-8 14-8z" fill="#3E84DA"/>
</svg>
